<svg version="1.1" xmlns="http://www.w3.org/2000/svg" width="960" height="1024" viewBox="0 0 960 1024">
<g id="icomoon-ignore"></g>
<path fill="#2e2f42" d="M950.477 707.123l-270.182-272.162 29.986-147.696c7.738 3.021 15.965 4.6 24.269 4.659h0.205c38.154 0.451 69.446-30.112 69.899-68.264s-30.112-69.446-68.264-69.899c-38.154-0.45-69.446 30.112-69.899 68.265-0.096 8.163 1.254 16.278 3.992 23.971l-158.72 19.371-258.902-260.25c-3.176-3.241-7.51-5.084-12.048-5.12-4.48 0.023-8.771 1.807-11.947 4.966l-48.402 48.128c-6.662 6.664-6.662 17.468 0 24.132l26.045 26.419c-100.899 185.533-68.126 415.29 80.622 565.213 1.365 1.306 2.949 2.362 4.677 3.123-1.075 5.776-1.637 11.635-1.674 17.51v197.974h-204.8c-47.104 0.054-85.278 38.229-85.333 85.333v34.133c0 9.426 7.642 17.067 17.067 17.067h785.066c9.426 0 17.067-7.642 17.067-17.067v-34.133c-0.056-47.104-38.229-85.278-85.333-85.333h-204.8v-87.741c32.083 6.73 64.771 10.16 97.552 10.24 78.661-0.085 156.069-19.694 225.28-57.070l26.181 26.334c3.176 3.24 7.512 5.083 12.050 5.12 4.48-0.024 8.77-1.808 11.946-4.966l48.402-48.128c6.662-6.666 6.662-17.469 0-24.133zM710.69 199.458c13.366-13.294 34.979-13.235 48.272 0.131s13.235 34.978-0.131 48.27c-6.397 6.363-15.054 9.934-24.078 9.933h-0.102c-18.85-0.098-34.054-15.458-33.957-34.31 0.048-9.024 3.666-17.659 10.064-24.024h-0.067zM670.515 311.603l-19.149 94.259-37.614-37.837 56.763-56.422zM651.128 282.744l-61.44 61.082-47.531-47.787 108.971-13.294zM733.867 921.6c28.277 0 51.2 22.923 51.2 51.2v17.067h-750.934v-17.067c0-28.277 22.923-51.2 51.2-51.2h648.534zM494.933 853.333v34.134h-170.666v-34.134h170.666zM324.267 819.2v-129.707c0-41.403 38.28-75.093 85.333-75.093s85.333 33.69 85.333 75.093v129.707h-170.666zM529.067 764.928v-75.435c0-60.227-53.59-109.226-119.467-109.226-42.594-0.653-82.424 21.027-104.994 57.155-129.848-136.762-159.088-340.646-72.915-508.388l595.258 598.671c-91.917 46.758-197.285 59.923-297.882 37.222zM890.317 743.048l-673.826-677.785 24.149-24.064 253.918 255.352c0.118 0 0.187 0.222 0.307 0.307l419.669 422.126-24.218 24.064z"></path>
<path fill="#4d5ae5" d="M409.754 648.533h-0.154c-28.277-0.042-51.234 22.846-51.277 51.123s22.846 51.235 51.123 51.277h0.154c28.277 0.043 51.234-22.845 51.277-51.123s-22.846-51.234-51.123-51.277zM421.701 711.834c-3.213 3.195-7.568 4.984-12.101 4.966-9.426-0.050-17.026-7.73-16.978-17.154 0.024-4.512 1.834-8.83 5.030-12.013 3.178-3.16 7.467-4.944 11.947-4.966 9.426 0.048 17.026 7.728 16.978 17.154-0.024 4.512-1.834 8.83-5.030 12.013h0.154z"></path>
</svg>