<!-- Generated by IcoMoon.io -->
<svg version="1.1" xmlns="http://www.w3.org/2000/svg" width="1150" height="1024" viewBox="0 0 1150 1024">
<g id="icomoon-ignore">
</g>
<path fill="#4d5ae5" d="M1148.822 95.049c-2.262-6.919-8.241-11.976-15.464-13.032l-68.64-9.984-30.718-62.202c-6.439-13.108-27.919-13.108-34.358 0l-30.718 62.202-68.644 9.987c-7.224 1.053-13.201 6.095-15.482 13.031-2.242 6.937-0.384 14.563 4.847 19.643l49.691 48.425-11.727 68.373c-1.227 7.186 1.725 14.449 7.608 18.743 5.961 4.331 13.74 4.865 20.198 1.455l61.397-32.29 61.399 32.29c2.799 1.475 5.884 2.202 8.93 2.202 3.967 0 7.935-1.227 11.269-3.661 5.901-4.29 8.853-11.555 7.608-18.741l-11.726-68.374 49.689-48.425c5.204-5.098 7.085-12.706 4.842-19.643zM1060.33 142.726c-4.504 4.388-6.573 10.75-5.501 16.959l6.861 40.031-35.948-18.895c-2.799-1.475-5.864-2.202-8.932-2.202-3.065 0-6.112 0.728-8.93 2.202l-35.95 18.895 6.859-40.031c1.074-6.209-0.997-12.551-5.499-16.959l-29.109-28.36 40.204-5.845c6.248-0.901 11.634-4.828 14.431-10.483l17.974-36.409 17.974 36.409c2.799 5.652 8.183 9.582 14.431 10.483l40.204 5.845-29.069 28.36z"></path>
<path fill="#4d5ae5" d="M938.97 669.859h-38.326v38.326h38.326v-38.326z"></path>
<path fill="#4d5ae5" d="M938.97 746.512h-38.326v38.326h38.326v-38.326z"></path>
<path fill="#4d5ae5" d="M977.298 708.186h-38.328v38.326h38.328v-38.326z"></path>
<path fill="#4d5ae5" d="M900.644 708.186h-38.325v38.326h38.325v-38.326z"></path>
<path fill="#4d5ae5" d="M804.83 880.651h-38.326v38.326h38.326v-38.326z"></path>
<path fill="#4d5ae5" d="M804.83 957.302h-38.326v38.326h38.326v-38.326z"></path>
<path fill="#4d5ae5" d="M843.158 918.979l-38.328-0.002v38.325l38.328 0.004v-38.326z"></path>
<path fill="#4d5ae5" d="M766.504 918.977l-38.326 0.002v38.326l38.326-0.004v-38.325z"></path>
<path fill="#4d5ae5" d="M574.877 804.002h-38.326v38.326h38.326v-38.326z"></path>
<path fill="#4d5ae5" d="M574.877 880.651h-38.326v38.326h38.326v-38.326z"></path>
<path fill="#4d5ae5" d="M613.204 842.324l-38.326 0.004v38.323h38.326v-38.326z"></path>
<path fill="#4d5ae5" d="M536.551 842.328l-38.326-0.004v38.326h38.326v-38.323z"></path>
<path fill="#4d5ae5" d="M210.782 152.462h-38.326v38.326h38.326v-38.326z"></path>
<path fill="#4d5ae5" d="M210.782 229.114h-38.326v38.326h38.326v-38.326z"></path>
<path fill="#4d5ae5" d="M249.107 190.789l-38.325-0.002v38.326l38.325 0.002v-38.326z"></path>
<path fill="#4d5ae5" d="M172.456 190.787l-38.327 0.002v38.326l38.327-0.002v-38.326z"></path>
<path fill="#2e2f42" d="M887.997 441.247c-10.328-13.932-25.485-22.9-42.694-25.316-17.286-2.452-34.342 2.089-48.139 12.647l-44.995 34.494-68.184 50.914-48.787-19.431c86.999-39.034 147.803-126.053 147.803-227.080 0-137.359-112.198-249.116-250.113-249.116s-250.111 111.757-250.111 249.116c0 49.786 14.888 96.082 40.241 135.040l-99.303-0.862c-0.057 0-0.115 0-0.172 0-0.307 0-0.555 0.153-0.843 0.172-1.897 0.077-3.756 0.46-5.576 1.112-0.46 0.172-0.938 0.269-1.378 0.478-0.23 0.097-0.46 0.115-0.69 0.23l-116.165 57.353c-0.020 0-0.038 0-0.038 0.018l-68.030 32.714c-0.748 0.327-1.514 0.767-2.261 1.265-27.116 18.051-36.353 53.503-21.5 82.477 7.914 15.407 21.385 26.752 37.943 31.943 6.382 1.992 12.897 2.971 19.373 2.971 10.406 0 20.716-2.549 30.161-7.588l49.863-26.522 81.345-42.004 48.751-0.287-195.52 194.58c-0.018 0.022-0.038 0.022-0.058 0.040l-48.099 47.905c-11.363 11.307-17.61 26.31-17.61 42.313 0 15.982 6.247 31.024 17.61 42.35 11.671 11.613 27.020 17.439 42.369 17.439 15.369 0 30.698-5.826 42.407-17.439l47.217-47.025 62.547-46.702 32.367 32.233-63.296 63.026c-0.018 0.020-0.038 0.020-0.059 0.038l-48.099 47.907c-11.363 11.305-17.61 26.31-17.61 42.311 0 15.983 6.247 31.024 17.61 42.352 11.671 11.611 27.040 17.437 42.389 17.437s30.718-5.826 42.406-17.437l125.093-124.558c0.022-0.020 0.022-0.038 0.040-0.057l36.275-35.932-0.135-0.135c0.23-0.228 0.555-0.307 0.787-0.555l185.612-203.298 124.712 17.746c0.9 0.135 1.8 0.19 2.702 0.19 2.319 0 4.559-0.555 6.726-1.378 0.632-0.23 1.187-0.537 1.782-0.843 0.69-0.347 1.417-0.537 2.071-0.977l115.455-76.651c0.422-0.287 0.65-0.747 1.053-1.053 0.46-0.365 1.035-0.517 1.455-0.922l45.683-42.791c23.771-22.271 27.046-58.756 7.615-84.855zM76.545 570.977c-6.227 3.336-13.299 4.004-20.063 1.859-6.708-2.088-12.149-6.669-15.331-12.857-5.787-11.269-2.434-24.989 7.703-32.405l47.199-22.708 16.135 47.158-35.643 18.953zM202.195 505.308l-55.629 28.744-15.769-46.107 72.821-35.951-1.423 53.314zM744.716 267.438c0 32.998-7.876 64.12-21.52 91.961l-150.237-68.238c-1.572-20.599-12.263-38.632-28.322-49.862l52.601-174.631c85.43 27.175 147.478 106.873 147.478 200.77zM321.141 267.438c0-116.224 95.009-210.793 211.787-210.793 9.085 0 17.976 0.766 26.771 1.877l-51.453 170.799c-0.688-0.020-1.34-0.21-2.050-0.21-37.099 0-67.282 30.084-67.282 67.070 0 36.984 30.183 67.070 67.282 67.070 24.95 0 46.508-13.775 58.14-33.938l138.777 63.046c-38.614 51.969-100.415 85.869-170.187 85.869-116.776 0-211.785-94.567-211.785-210.791zM535.151 296.182c0 15.847-12.994 28.744-28.956 28.744s-28.956-12.897-28.956-28.744c0-15.847 12.994-28.744 28.956-28.744s28.956 12.897 28.956 28.744zM88.561 836.001c-8.489 8.411-22.23 8.393-30.698 0.020-4.083-4.083-6.324-9.466-6.324-15.197 0-5.711 2.241-11.095 6.324-15.137l34.567-34.437 30.584 30.451-34.453 34.3zM204.035 970.141c-8.488 8.413-22.248 8.433-30.718 0.022-4.083-4.083-6.324-9.466-6.324-15.197 0-5.711 2.241-11.097 6.324-15.139l34.59-34.455 30.603 30.452-34.475 34.317zM329.132 845.506c-0.022 0.018-0.040 0.018-0.059 0.038l-63.411 63.238-30.603-30.451 63.351-63.066c0 0 0 0 0-0.018 0.022-0.020 0.040-0.020 0.059-0.038 1.437-1.437 2.337-3.162 3.219-4.867 0.25-0.498 0.728-0.92 0.94-1.437 0.595-1.475 0.69-3.065 0.92-4.619 0.115-0.882 0.499-1.705 0.499-2.607 0-1.284-0.46-2.529-0.728-3.796-0.23-1.15-0.23-2.319-0.672-3.43-0.728-1.8-1.974-3.39-3.277-4.944-0.363-0.422-0.498-0.959-0.9-1.362 0 0 0 0-0.020 0-0.020-0.018-0.020-0.057-0.038-0.075l-57.739-57.49c-0.613-0.613-1.398-0.862-2.088-1.378-1.015-0.787-1.992-1.514-3.124-2.071-1.090-0.537-2.202-0.862-3.352-1.17-1.227-0.347-2.414-0.613-3.699-0.71-1.17-0.075-2.262 0.038-3.43 0.172-1.284 0.153-2.49 0.327-3.737 0.728-1.207 0.384-2.28 0.977-3.39 1.611-0.71 0.401-1.514 0.535-2.186 1.035l-63.715 47.562-32.367-32.231 86.196-85.736 156.676 154.090-33.327 33.018zM574.13 593.399c-0.555-0.077-1.074 0.135-1.629 0.095-1.399-0.075-2.74 0.022-4.139 0.25-1.090 0.19-2.125 0.402-3.162 0.765-1.225 0.422-2.337 0.997-3.469 1.687-1.073 0.652-2.050 1.34-2.989 2.202-0.46 0.402-1.015 0.596-1.437 1.055l-168.807 184.884-155.506-152.941 101.793-101.256c7.493-7.473 7.531-19.605 0.057-27.116-3.774-3.774-8.736-5.634-13.7-5.614l-79.718 0.46 0.997-57.755 111.528 0.959c45.453 46.488 108.844 75.483 178.979 75.483 15.714 0 31.045-1.629 45.972-4.409 1.437 1.15 2.853 2.319 4.657 3.047l86.578 34.493 11.88 59.058-107.885-15.347zM719.326 599.798l-11.248-55.975 51.969-38.804 34.015 45.146-74.736 49.633zM854.192 498.083l-30.104 28.207-33.458-44.418 29.874-22.9c5.575-4.292 12.61-6.036 19.508-5.136 6.936 0.977 13.069 4.599 17.246 10.215 7.781 10.483 6.458 25.102-3.067 34.033z"></path>
<path fill="#2e2f42" d="M488.719 598.785l-76.996-76.651c-7.454-7.454-19.567-7.454-27.041 0l-76.976 76.651c-3.602 3.622-5.634 8.488-5.634 13.585s2.012 9.985 5.634 13.587l76.976 76.651c3.737 3.717 8.645 5.576 13.531 5.576s9.791-1.859 13.51-5.576l76.996-76.651c3.602-3.602 5.652-8.488 5.652-13.587 0-5.097-2.032-9.983-5.652-13.585zM398.214 661.984l-49.826-49.614 49.826-49.612 49.842 49.612-49.842 49.614z"></path>
<path fill="#2e2f42" d="M616.708 114.692l-9.257 37.215c2.549 0.633 62.433 16.231 62.433 77.207h38.326c-0.002-72.475-59.847-106.546-91.502-114.422z"></path>
<path fill="#2e2f42" d="M708.213 267.438h-38.326v38.326h38.326v-38.326z"></path>
</svg>
