<!-- Generated by IcoMoon.io -->
<svg version="1.1" xmlns="http://www.w3.org/2000/svg" width="1311" height="1024" viewBox="0 0 1311 1024">
<g id="icomoon-ignore">
</g>
<path fill="#4d5ae5" d="M611.348 459.426h43.67v196.504h-43.67v-196.504z"></path>
<path fill="#4d5ae5" d="M786.020 546.761h43.667v109.169h-43.667v-109.169z"></path>
<path fill="#4d5ae5" d="M436.679 612.262h43.667v43.667h-43.667v-43.667z"></path>
<path fill="#4d5ae5" d="M305.674 590.428h43.667v65.501h-43.667v-65.501z"></path>
<path fill="#2e2f42" d="M65.502 1005.273h1048.027c36.174 0 65.503-29.329 65.503-65.501v-87.337c0-36.172-29.329-65.501-65.503-65.501h-21.834v-544.494l124.021-117.485c28.785 14.19 63.625 5.576 82.463-20.427 18.85-25.992 16.206-61.781-6.246-84.724s-58.167-26.365-84.574-8.102c-26.397 18.273-35.779 52.911-22.219 82.005l-93.444 88.583v-50.374c0-36.173-29.327-65.502-65.501-65.502h-873.356c-36.173 0-65.502 29.329-65.502 65.502v655.017h-21.834c-36.173 0-65.502 29.329-65.502 65.501v87.337c0 36.172 29.329 65.501 65.502 65.501zM1244.533 44.581c12.057 0 21.834 9.776 21.834 21.834s-9.777 21.834-21.834 21.834c-12.059 0-21.834-9.776-21.834-21.834s9.775-21.834 21.834-21.834zM131.003 131.917c0-12.058 9.776-21.834 21.834-21.834h873.356c12.057 0 21.834 9.776 21.834 21.834v91.696l-43.667 41.492v-89.521c0-12.058-9.777-21.834-21.834-21.834h-786.021c-12.058 0-21.834 9.776-21.834 21.834v545.848c0 12.057 9.776 21.834 21.834 21.834h786.021c12.057 0 21.834-9.777 21.834-21.834v-396.263l43.667-41.376v503.14h-917.024v-655.017zM327.508 415.756c-29.54-0.084-55.48 19.595-63.336 48.073-7.858 28.475 4.307 58.677 29.712 73.753 25.395 15.075 57.752 11.291 78.977-9.253l75.897 38.081c8.817 4.413 19.509 2.345 26.065-5.022l161.335-181.504 158.593 118.839c8.507 6.375 20.386 5.691 28.103-1.61l137.839-130.568v333.054h-742.353v-502.181h742.353v108.967l-154.481 146.293-159.926-119.896c-9.083-6.801-21.866-5.521-29.413 2.953l-163.551 184.021-61.143-30.575c0.449-2.623 0.725-5.267 0.834-7.922 0-36.174-29.329-65.503-65.503-65.503zM349.342 481.26c0 12.057-9.775 21.834-21.834 21.834-12.057 0-21.834-9.777-21.834-21.834 0-12.059 9.777-21.834 21.834-21.834 12.059 0 21.834 9.775 21.834 21.834zM480.346 830.601h218.339v21.834c0 12.059-9.777 21.834-21.834 21.834h-174.672c-12.059 0-21.834-9.775-21.834-21.834v-21.834zM43.668 852.435c0-12.057 9.776-21.834 21.834-21.834h371.177v21.834c0 36.174 29.327 65.501 65.501 65.501h174.672c36.172 0 65.501-29.327 65.501-65.501v-21.834h371.175c12.059 0 21.834 9.777 21.834 21.834v87.337c0 12.057-9.775 21.834-21.834 21.834h-1048.027c-12.058 0-21.834-9.777-21.834-21.834v-87.337z"></path>
</svg>
