<svg xmlns="http://www.w3.org/2000/svg" style="display: none;">
    <symbol id="icon-antena" viewBox="0 0 960 1024">
        <g id="icomoon-ignore"></g>
        <path fill="#2e2f42"
            d="M950.477 707.123l-270.182-272.162 29.986-147.696c7.738 3.021 15.965 4.6 24.269 4.659h0.205c38.154 0.451 69.446-30.112 69.899-68.264s-30.112-69.446-68.264-69.899c-38.154-0.45-69.446 30.112-69.899 68.265-0.096 8.163 1.254 16.278 3.992 23.971l-158.72 19.371-258.902-260.25c-3.176-3.241-7.51-5.084-12.048-5.12-4.48 0.023-8.771 1.807-11.947 4.966l-48.402 48.128c-6.662 6.664-6.662 17.468 0 24.132l26.045 26.419c-100.899 185.533-68.126 415.29 80.622 565.213 1.365 1.306 2.949 2.362 4.677 3.123-1.075 5.776-1.637 11.635-1.674 17.51v197.974h-204.8c-47.104 0.054-85.278 38.229-85.333 85.333v34.133c0 9.426 7.642 17.067 17.067 17.067h785.066c9.426 0 17.067-7.642 17.067-17.067v-34.133c-0.056-47.104-38.229-85.278-85.333-85.333h-204.8v-87.741c32.083 6.73 64.771 10.16 97.552 10.24 78.661-0.085 156.069-19.694 225.28-57.070l26.181 26.334c3.176 3.24 7.512 5.083 12.050 5.12 4.48-0.024 8.77-1.808 11.946-4.966l48.402-48.128c6.662-6.666 6.662-17.469 0-24.133zM710.69 199.458c13.366-13.294 34.979-13.235 48.272 0.131s13.235 34.978-0.131 48.27c-6.397 6.363-15.054 9.934-24.078 9.933h-0.102c-18.85-0.098-34.054-15.458-33.957-34.31 0.048-9.024 3.666-17.659 10.064-24.024h-0.067zM670.515 311.603l-19.149 94.259-37.614-37.837 56.763-56.422zM651.128 282.744l-61.44 61.082-47.531-47.787 108.971-13.294zM733.867 921.6c28.277 0 51.2 22.923 51.2 51.2v17.067h-750.934v-17.067c0-28.277 22.923-51.2 51.2-51.2h648.534zM494.933 853.333v34.134h-170.666v-34.134h170.666zM324.267 819.2v-129.707c0-41.403 38.28-75.093 85.333-75.093s85.333 33.69 85.333 75.093v129.707h-170.666zM529.067 764.928v-75.435c0-60.227-53.59-109.226-119.467-109.226-42.594-0.653-82.424 21.027-104.994 57.155-129.848-136.762-159.088-340.646-72.915-508.388l595.258 598.671c-91.917 46.758-197.285 59.923-297.882 37.222zM890.317 743.048l-673.826-677.785 24.149-24.064 253.918 255.352c0.118 0 0.187 0.222 0.307 0.307l419.669 422.126-24.218 24.064z">
        </path>
        <path fill="#4d5ae5"
            d="M409.754 648.533h-0.154c-28.277-0.042-51.234 22.846-51.277 51.123s22.846 51.235 51.123 51.277h0.154c28.277 0.043 51.234-22.845 51.277-51.123s-22.846-51.234-51.123-51.277zM421.701 711.834c-3.213 3.195-7.568 4.984-12.101 4.966-9.426-0.050-17.026-7.73-16.978-17.154 0.024-4.512 1.834-8.83 5.030-12.013 3.178-3.16 7.467-4.944 11.947-4.966 9.426 0.048 17.026 7.728 16.978 17.154-0.024 4.512-1.834 8.83-5.030 12.013h0.154z">
        </path>
    </symbol>

    <symbol id="icon-clock" viewBox="0 0 992 1024">
        <g id="icomoon-ignore"></g>
        <path fill="#2e2f42"
            d="M979.493 489.64c-0.054-270.475-219.368-489.695-489.853-489.64-270.475 0.055-489.695 219.374-489.64 489.851 0.047 213.054 137.82 401.634 340.781 466.438 1.938 0.61 3.954 0.922 5.978 0.914 3.859-0.008 7.64-1.038 10.96-3 4.32-2.555 7.547-6.618 9.062-11.406l123.68-392c33.813-0.171 61.078-27.726 60.899-61.531-0.173-33.813-27.72-61.078-61.531-60.906-9.094 0.038-18.070 2.133-26.243 6.125l-163.39-163.414c-8.109-7.829-21.024-7.602-28.851 0.499-7.642 7.915-7.642 20.446 0 28.36l163.304 163.493c-12.531 25.578-5.366 56.453 17.165 73.89l-117.845 373.531c-232.89-85.789-352.14-344.125-266.351-577.014 85.789-232.891 344.125-352.141 577.016-266.352s352.139 344.133 266.35 577.016c-41.914 113.781-128.030 205.797-238.789 255.147l-12.734-59.976c-2.328-11.024-13.163-18.070-24.187-15.734-3.477 0.742-6.704 2.376-9.36 4.742l-122.781 109.618c-8.422 7.491-9.171 20.39-1.672 28.813 2.438 2.734 5.563 4.765 9.062 5.882l156.758 50.032c10.726 3.445 22.219-2.453 25.664-13.187 1.093-3.39 1.274-7 0.539-10.485l-12.515-58.851c181.258-76.414 298.944-254.149 298.523-450.853zM489.75 469.235c11.266 0 20.406 9.139 20.406 20.405 0 11.274-9.141 20.406-20.406 20.406-11.274 0-20.406-9.133-20.406-20.406 0-11.266 9.133-20.405 20.406-20.405zM556.962 944.883l69.89-62.344 19.29 90.891-89.179-28.547z">
        </path>
        <path fill="#4d5ae5"
            d="M469.344 101.922v40.812c0 11.273 9.133 20.407 20.406 20.407 11.266 0 20.405-9.133 20.405-20.407v-40.812c0-11.266-9.139-20.406-20.405-20.406-11.274 0-20.406 9.141-20.406 20.406z">
        </path>
        <path fill="#4d5ae5"
            d="M102.031 469.234c-11.273 0-20.406 9.141-20.406 20.406 0 11.274 9.133 20.406 20.406 20.406h40.812c11.273 0 20.406-9.133 20.406-20.406 0-11.266-9.132-20.406-20.406-20.406h-40.812z">
        </path>
        <path fill="#4d5ae5"
            d="M877.459 510.046c11.274 0 20.406-9.133 20.406-20.406 0-11.266-9.133-20.406-20.406-20.406h-40.811c-11.266 0-20.406 9.141-20.406 20.406 0 11.274 9.141 20.406 20.406 20.406h40.811z">
        </path>
    </symbol>

    <symbol id="icon-graphic" viewBox="0 0 1311 1024">
        <g id="icomoon-ignore"></g>
        <path fill="#4d5ae5" d="M611.348 459.426h43.67v196.504h-43.67v-196.504z"></path>
        <path fill="#4d5ae5" d="M786.020 546.761h43.667v109.169h-43.667v-109.169z"></path>
        <path fill="#4d5ae5" d="M436.679 612.262h43.667v43.667h-43.667v-43.667z"></path>
        <path fill="#305.674" d="M305.674 590.428h43.667v65.501h-43.667v-65.501z"></path>
        <path fill="#2e2f42"
            d="M65.502 1005.273h1048.027c36.174 0 65.503-29.329 65.503-65.501v-87.337c0-36.172-29.329-65.501-65.503-65.501h-21.834v-544.494l124.021-117.485c28.785 14.19 63.625 5.576 82.463-20.427 18.85-25.992 16.206-61.781-6.246-84.724s-58.167-26.365-84.574-8.102c-26.397 18.273-35.779 52.911-22.219 82.005l-93.444 88.583v-50.374c0-36.173-29.327-65.502-65.501-65.502h-873.356c-36.173 0-65.502 29.329-65.502 65.502v655.017h-21.834c-36.173 0-65.502 29.329-65.502 65.501v87.337c0 36.172 29.329 65.501 65.502 65.501zM1244.533 44.581c12.057 0 21.834 9.776 21.834 21.834s-9.777 21.834-21.834 21.834c-12.059 0-21.834-9.776-21.834-21.834s9.775-21.834 21.834-21.834zM131.003 131.917c0-12.058 9.776-21.834 21.834-21.834h873.356c12.057 0 21.834 9.776 21.834 21.834v91.696l-43.667 41.492v-89.521c0-12.058-9.777-21.834-21.834-21.834h-786.021c-12.058 0-21.834 9.776-21.834 21.834v545.848c0 12.057 9.776 21.834 21.834 21.834h786.021c12.057 0 21.834-9.777 21.834-21.834v-396.263l43.667-41.376v503.14h-917.024v-655.017zM327.508 415.756c-29.54-0.084-55.48 19.595-63.336 48.073-7.858 28.475 4.307 58.677 29.712 73.753 25.395 15.075 57.752 11.291 78.977-9.253l75.897 38.081c8.817 4.413 19.509 2.345 26.065-5.022l161.335-181.504 158.593 118.839c8.507 6.375 20.386 5.691 28.103-1.61l137.839-130.568v333.054h-742.353v-502.181h742.353v108.967l-154.481 146.293-159.926-119.896c-9.083-6.801-21.866-5.521-29.413 2.953l-163.551 184.021-61.143-30.575c0.449-2.623 0.725-5.267 0.834-7.922 0-36.174-29.329-65.503-65.503-65.503zM349.342 481.26c0 12.057-9.775 21.834-21.834 21.834-12.057 0-21.834-9.777-21.834-21.834 0-12.059 9.777-21.834 21.834-21.834 12.059 0 21.834 9.775 21.834 21.834zM480.346 830.601h218.339v21.834c0 12.059-9.777 21.834-21.834 21.834h-174.672c-12.059 0-21.834-9.775-21.834-21.834v-21.834zM43.668 852.435c0-12.057 9.776-21.834 21.834-21.834h371.177v21.834c0 36.174 29.327 65.501 65.501 65.501h174.672c36.172 0 65.501-29.327 65.501-65.501v-21.834h371.175c12.059 0 21.834 9.777 21.834 21.834v87.337c0 12.057-9.775 21.834-21.834 21.834h-1048.027c-12.058 0-21.834-9.777-21.834-21.834v-87.337z">
        </path>
    </symbol>
    <symbol id="icon-astronaut" viewBox="0 0 1150 1024">
        <g id="icomoon-ignore"></g>
        <path fill="#4d5ae5"
            d="M1148.822 95.049c-2.262-6.919-8.241-11.976-15.464-13.032l-68.64-9.984-30.718-62.202c-6.439-13.108-27.919-13.108-34.358 0l-30.718 62.202-68.644 9.987c-7.224 1.053-13.201 6.095-15.482 13.031-2.242 6.937-0.384 14.563 4.847 19.643l49.691 48.425-11.727 68.373c-1.227 7.186 1.725 14.449 7.608 18.743 5.961 4.331 13.74 4.865 20.198 1.455l61.397-32.29 61.399 32.29c2.799 1.475 5.884 2.202 8.93 2.202 3.967 0 7.935-1.227 11.269-3.661 5.901-4.29 8.853-11.555 7.608-18.741l-11.726-68.374 49.689-48.425c5.204-5.098 7.085-12.706 4.842-19.643zM1060.33 142.726c-4.504 4.388-6.573 10.75-5.501 16.959l6.861 40.031-35.948-18.895c-2.799-1.475-5.864-2.202-8.932-2.202-3.065 0-6.112 0.728-8.93 2.202l-35.95 18.895 6.859-40.031c1.074-6.209-0.997-12.551-5.499-16.959l-29.109-28.36 40.204-5.845c6.248-0.901 11.634-4.828 14.431-10.483l17.974-36.409 17.974 36.409c2.799 5.652 8.183 9.582 14.431 10.483l40.204 5.845-29.069 28.36z">
        </path>
        <path fill="#4d5ae5" d="M938.97 669.859h-38.326v38.326h38.326v-38.326z"></path>
        <path fill="#4d5ae5" d="M938.97 746.512h-38.326v38.326h38.326v-38.326z"></path>
        <path fill="#4d5ae5" d="M977.298 708.186h-38.328v38.326h38.328v-38.326z"></path>
        <path fill="#4d5ae5" d="M900.644 708.186h-38.325v38.326h38.325v-38.326z"></path>
        <path fill="#4d5ae5" d="M804.83 880.651h-38.326v38.326h38.326v-38.326z"></path>
        <path fill="#4d5ae5" d="M804.83 957.302h-38.326v38.326h38.326v-38.326z"></path>
        <path fill="#4d5ae5" d="M843.158 918.979l-38.328-0.002v38.325l38.328 0.004v-38.326z"></path>
        <path fill="#4d5ae5" d="M766.504 918.977l-38.326 0.002v38.326l38.326-0.004v-38.325z"></path>
        <path fill="#4d5ae5" d="M574.877 804.002h-38.326v38.326h38.326v-38.326z"></path>
        <path fill="#4d5ae5" d="M574.877 880.651h-38.326v38.326h38.326v-38.326z"></path>
        <path fill="#4d5ae5" d="M613.204 842.324l-38.326 0.004v38.323h38.326v-38.326z"></path>
        <path fill="#4d5ae5" d="M536.551 842.328l-38.326-0.004v38.326h38.326v-38.323z"></path>
        <path fill="#4d5ae5" d="M210.782 152.462h-38.326v38.326h38.326v-38.326z"></path>
        <path fill="#4d5ae5" d="M210.782 229.114h-38.326v38.326h38.326v-38.326z"></path>
        <path fill="#4d5ae5" d="M249.107 190.789l-38.325-0.002v38.326l38.325 0.002v-38.326z"></path>
        <path fill="#4d5ae5" d="M172.456 190.787l-38.327 0.002v38.326l38.327-0.002v-38.326z"></path>
        <path fill="#2e2f42"
            d="M887.997 441.247c-10.328-13.932-25.485-22.9-42.694-25.316-17.286-2.452-34.342 2.089-48.139 12.647l-44.995 34.494-68.184 50.914-48.787-19.431c86.999-39.034 147.803-126.053 147.803-227.080 0-137.359-112.198-249.116-250.113-249.116s-250.111 111.757-250.111 249.116c0 49.786 14.888 96.082 40.241 135.040l-99.303-0.862c-0.057 0-0.115 0-0.172 0-0.307 0-0.555 0.153-0.843 0.172-1.897 0.077-3.756 0.46-5.576 1.112-0.46 0.172-0.938 0.269-1.378 0.478-0.23 0.097-0.46 0.115-0.69 0.23l-116.165 57.353c-0.020 0-0.038 0-0.038 0.018l-68.030 32.714c-0.748 0.327-1.514 0.767-2.261 1.265-27.116 18.051-36.353 53.503-21.5 82.477 7.914 15.407 21.385 26.752 37.943 31.943 6.382 1.992 12.897 2.971 19.373 2.971 10.406 0 20.716-2.549 30.161-7.588l49.863-26.522 81.345-42.004 48.751-0.287-195.52 194.58c-0.018 0.022-0.038 0.022-0.058 0.040l-48.099 47.905c-11.363 11.307-17.61 26.31-17.61 42.313 0 15.982 6.247 31.024 17.61 42.35 11.671 11.613 27.020 17.439 42.369 17.439 15.369 0 30.698-5.826 42.407-17.439l47.217-47.025 62.547-46.702 32.367 32.233-63.296 63.026c-0.018 0.020-0.038 0.020-0.059 0.038l-48.099 47.907c-11.363 11.305-17.61 26.31-17.61 42.311 0 15.983 6.247 31.024 17.61 42.352 11.671 11.611 27.040 17.437 42.389 17.437s30.718-5.826 42.406-17.437l125.093-124.558c0.022-0.020 0.022-0.038 0.040-0.057l36.275-35.932-0.135-0.135c0.23-0.228 0.555-0.307 0.787-0.555l185.612-203.298 124.712 17.746c0.9 0.135 1.8 0.19 2.702 0.19 2.319 0 4.559-0.555 6.726-1.378 0.632-0.23 1.187-0.537 1.782-0.843 0.69-0.347 1.417-0.537 2.071-0.977l115.455-76.651c0.422-0.287 0.65-0.747 1.053-1.053 0.46-0.365 1.035-0.517 1.455-0.922l45.683-42.791c23.771-22.271 27.046-58.756 7.615-84.855zM76.545 570.977c-6.227 3.336-13.299 4.004-20.063 1.859-6.708-2.088-12.149-6.669-15.331-12.857-5.787-11.269-2.434-24.989 7.703-32.405l47.199-22.708 16.135 47.158-35.643 18.953zM202.195 505.308l-55.629 28.744-15.769-46.107 72.821-35.951-1.423 53.314zM744.716 267.438c0 32.998-7.876 64.12-21.52 91.961l-150.237-68.238c-1.572-20.599-12.263-38.632-28.322-49.862l52.601-174.631c85.43 27.175 147.478 106.873 147.478 200.77zM321.141 267.438c0-116.224 95.009-210.793 211.787-210.793 9.085 0 17.976 0.766 26.771 1.877l-51.453 170.799c-0.688-0.020-1.34-0.21-2.050-0.21-37.099 0-67.282 30.084-67.282 67.070 0 36.984 30.183 67.070 67.282 67.070 24.95 0 46.508-13.775 58.14-33.938l138.777 63.046c-38.614 51.969-100.415 85.869-170.187 85.869-116.776 0-211.785-94.567-211.785-210.791zM535.151 296.182c0 15.847-12.994 28.744-28.956 28.744s-28.956-12.897-28.956-28.744c0-15.847 12.994-28.744 28.956-28.744s28.956 12.897 28.956 28.744zM88.561 836.001c-8.489 8.411-22.23 8.393-30.698 0.020-4.083-4.083-6.324-9.466-6.324-15.197 0-5.711 2.241-11.095 6.324-15.137l34.567-34.437 30.584 30.451-34.453 34.3zM204.035 970.141c-8.488 8.413-22.248 8.433-30.718 0.022-4.083-4.083-6.324-9.466-6.324-15.197 0-5.711 2.241-11.097 6.324-15.139l34.59-34.455 30.603 30.452-34.475 34.317zM329.132 845.506c-0.022 0.018-0.040 0.018-0.059 0.038l-63.411 63.238-30.603-30.451 63.351-63.066c0 0 0 0 0-0.018 0.022-0.020 0.040-0.020 0.059-0.038 1.437-1.437 2.337-3.162 3.219-4.867 0.25-0.498 0.728-0.92 0.94-1.437 0.595-1.475 0.69-3.065 0.92-4.619 0.115-0.882 0.499-1.705 0.499-2.607 0-1.284-0.46-2.529-0.728-3.796-0.23-1.15-0.23-2.319-0.672-3.43-0.728-1.8-1.974-3.39-3.277-4.944-0.363-0.422-0.498-0.959-0.9-1.362 0 0 0 0-0.020 0-0.020-0.018-0.020-0.057-0.038-0.075l-57.739-57.49c-0.613-0.613-1.398-0.862-2.088-1.378-1.015-0.787-1.992-1.514-3.124-2.071-1.090-0.537-2.202-0.862-3.352-1.17-1.227-0.347-2.414-0.613-3.699-0.71-1.17-0.075-2.262 0.038-3.43 0.172-1.284 0.153-2.49 0.327-3.737 0.728-1.207 0.384-2.28 0.977-3.39 1.611-0.71 0.401-1.514 0.535-2.186 1.035l-63.715 47.562-32.367-32.231 86.196-85.736 156.676 154.090-33.327 33.018zM574.13 593.399c-0.555-0.077-1.074 0.135-1.629 0.095-1.399-0.075-2.74 0.022-4.139 0.25-1.090 0.19-2.125 0.402-3.162 0.765-1.225 0.422-2.337 0.997-3.469 1.687-1.073 0.652-2.050 1.34-2.989 2.202-0.46 0.402-1.015 0.596-1.437 1.055l-168.807 184.884-155.506-152.941 101.793-101.256c7.493-7.473 7.531-19.605 0.057-27.116-3.774-3.774-8.736-5.634-13.7-5.614l-79.718 0.46 0.997-57.755 111.528 0.959c45.453 46.488 108.844 75.483 178.979 75.483 15.714 0 31.045-1.629 45.972-4.409 1.437 1.15 2.853 2.319 4.657 3.047l86.578 34.493 11.88 59.058-107.885-15.347zM719.326 599.798l-11.248-55.975 51.969-38.804 34.015 45.146-74.736 49.633zM854.192 498.083l-30.104 28.207-33.458-44.418 29.874-22.9c5.575-4.292 12.61-6.036 19.508-5.136 6.936 0.977 13.069 4.599 17.246 10.215 7.781 10.483 6.458 25.102-3.067 34.033z">
        </path>
        <path fill="#2e2f42"
            d="M488.719 598.785l-76.996-76.651c-7.454-7.454-19.567-7.454-27.041 0l-76.976 76.651c-3.602 3.622-5.634 8.488-5.634 13.585s2.012 9.985 5.634 13.587l76.976 76.651c3.737 3.717 8.645 5.576 13.531 5.576s9.791-1.859 13.51-5.576l76.996-76.651c3.602-3.602 5.652-8.488 5.652-13.587 0-5.097-2.032-9.983-5.652-13.585zM398.214 661.984l-49.826-49.614 49.826-49.612 49.842 49.612-49.842 49.614z">
        </path>
        <path fill="#2e2f42"
            d="M616.708 114.692l-9.257 37.215c2.549 0.633 62.433 16.231 62.433 77.207h38.326c-0.002-72.475-59.847-106.546-91.502-114.422z">
        </path>
        <path fill="#2e2f42" d="M708.213 267.438h-38.326v38.326h38.326v-38.326z"></path>
    </symbol>

    <symbol id="icon-instagram" viewBox="0 0 24 24">
        <path fill="#4D5AE5" stroke="#F4F4FD" stroke-linejoin="round" stroke-width="2"
            d="M12 16a4 4 0 1 0 0-8 4 4 0 0 0 0 8Z" />
        <path fill="currentcolor" d="M3 16V8a5 5 0 0 1 5-5h8a5 5 0 0 1 5 5v8a5 5 0 0 1-5 5H8a5 5 0 0 1-5-5Z"
            style="stroke:#F4F4FD;stroke-width:2;stroke-linejoin:round;fill:none" />
        <circle cx="17.5" cy="6.5" r="1" fill="#F4F4FD" />
    </symbol>

    <symbol id="icon-twitter" viewBox="0 0 24 24">
        <path fill="#F4F4FD"
            d="M18.244 2.25h3.308l-7.227 8.26 8.502 11.24H16.17l-5.214-6.817L4.99 21.75H1.68l7.73-8.835L1.254 2.25H8.08l4.713 6.231zm-1.161 17.52h1.833L7.084 4.126H5.117z" />
    </symbol>

    <symbol id="icon-facebook" viewBox="0 0 24 24">
        <path fill="#F4F4FD" d="M18 2h-3a5 5 0 0 0-5 5v3H7v4h3v8h4v-8h3l1-4h-4V7a1 1 0 0 1 1-1h3z" />
    </symbol>

    <symbol id="icon-linkedin" viewBox="0 0 24 24">
        <path fill="#F4F4FD"
            d="M4.98 3.5c0 1.381-1.11 2.5-2.48 2.5s-2.48-1.119-2.48-2.5c0-1.38 1.11-2.5 2.48-2.5s2.48 1.12 2.48 2.5zm.02 4.5h-5v16h5v-16zm7.982 0h-4.968v16h4.969v-8.399c0-4.67 6.029-5.052 6.029 0v8.399h4.988v-10.131c0-7.88-8.922-7.593-11.018-3.714v-2.155z" />
    </symbol>

    <symbol id="icon-cross" viewBox="0 0 1024 1024">
        <g id="icomoon-ignore"></g>
        <path fill="#000"
            d="M1024 103.131l-103.131-103.131-408.869 408.869-408.869-408.869-103.131 103.131 408.869 408.869-408.869 408.869 103.131 103.131 408.869-408.869 408.869 408.869 103.131-103.131-408.869-408.869 408.869-408.869z">
        </path>
    </symbol>

    <symbol id="icon-phone" viewBox="0 0 1024 1024">
        <g id="icomoon-ignore"></g>
        <path fill="#000"
            d="M923.672 698.298l-144.793-16.531c-34.772-3.99-68.974 7.98-93.486 32.492l-104.887 104.885c-161.32-82.084-293.569-213.763-375.654-375.654l105.456-105.457c24.511-24.512 36.483-58.714 32.492-93.486l-16.531-143.65c-6.84-57.574-55.294-100.897-113.437-100.897h-98.616c-64.414 0-117.998 53.584-114.008 117.998 30.212 486.814 419.547 875.581 905.786 905.789 64.417 3.994 117.996-49.593 117.996-114.003v-98.619c0.575-57.573-42.748-106.027-100.32-112.868z">
        </path>
    </symbol>

    <symbol id="icon-user" viewBox="0 0 1024 1024">
        <g id="icomoon-ignore"></g>
        <path fill="#4d5ae5"
            d="M512 512c141.44 0 256-114.56 256-256s-114.56-256-256-256c-141.44 0-256 114.56-256 256s114.56 256 256 256zM512 640c-170.88 0-512 85.76-512 256v64c0 35.2 28.8 64 64 64h896c35.2 0 64-28.8 64-64v-64c0-170.24-341.12-256-512-256z">
        </path>
    </symbol>

    <symbol id="icon-email" viewBox="0 0 1280 1024">
        <g id="icomoon-ignore"></g>
        <path fill="#000"
            d="M1152 0h-1024c-70.4 0-127.36 57.6-127.36 128l-0.64 768c0 70.4 57.6 128 128 128h1024c70.4 0 128-57.6 128-128v-768c0-70.4-57.6-128-128-128zM1126.4 272l-452.48 282.88c-20.48 12.8-47.36 12.8-67.84 0l-452.48-282.88c-16-10.24-25.6-27.52-25.6-46.080 0-42.88 46.72-68.48 83.2-46.080l428.8 268.16 428.8-268.16c36.48-22.4 83.2 3.2 83.2 46.080 0 18.56-9.6 35.84-25.6 46.080z">
        </path>
    </symbol>

    <!-- 🌟 ДОБАВЛЕНО: Кастомный чекбокс (галочка) -->
    <symbol id="icon-check" viewBox="0 0 10 8">
        <path
            d="M1.00455 3.5284C0.793315 3.32833 0.457896 3.33707 0.257827 3.54831C0.0577587 3.75955 0.0664987 4.09497 0.277735 4.29504L2.83354 6.71616C3.04781 6.91913 3.38676 6.91429 3.59518 6.70529L9.70932 0.57393C9.91612 0.366556 9.91424 0.0311409 9.70687 -0.175658C9.49949 -0.382457 9.16408 -0.380577 8.95728 -0.173203L3.22687 5.57313L1.00455 3.5284Z"
            fill="#F4F4FD" />
    </symbol>

    <!-- 🌟 ДОБАВЛЕНО: Самолетик для кнопки футера -->
    <symbol id="icon-send" viewBox="0 0 24 24">
        <path d="M2.01 21L23 12L2.01 3L2 10L17 12L2 14L2.01 21Z" fill="#FFFFFF" />
    </symbol>
</svg>